<svg width="20" height="20" viewBox="0 0 20 20" fill="none" xmlns="http://www.w3.org/2000/svg">
<path fill-rule="evenodd" clip-rule="evenodd" d="M8.70711 3.70711C9.09763 3.31658 9.09763 2.68342 8.70711 2.29289C8.31658 1.90237 7.68342 1.90237 7.29289 2.29289L0.365809 9.21998C0.353251 9.23253 0.341059 9.24532 0.329233 9.25832C0.127031 9.4413 0 9.70582 0 10C0 10.2942 0.127026 10.5587 0.329221 10.7417C0.341051 10.7547 0.353247 10.7675 0.365809 10.78L7.29289 17.7071C7.68342 18.0976 8.31658 18.0976 8.70711 17.7071C9.09763 17.3166 9.09763 16.6834 8.70711 16.2929L3.41421 11L19 11C19.5523 11 20 10.5523 20 10C20 9.44772 19.5523 9 19 9L3.41421 9L8.70711 3.70711Z" fill="white"/>
</svg>
