<svg width="120" height="120" viewBox="0 0 120 120" fill="none" xmlns="http://www.w3.org/2000/svg">
<g clip-path="url(#clip0_2899_5253)">
<rect width="120" height="120" rx="15" fill="#E4EAEF"/>
<path d="M28.8758 59.9318C16.3053 43.3993 10.0201 35.1331 13.444 29.7476C16.8678 24.362 27.0199 26.5459 47.324 30.9137L54.1202 32.3756C54.2652 32.4066 54.4169 32.3728 54.535 32.2831L60.0684 28.0758C76.6007 15.5054 84.8668 9.22016 90.2524 12.644C95.6379 16.0679 93.4541 26.22 89.0865 46.5241L87.6247 53.3201C87.5934 53.465 87.6268 53.6173 87.7165 53.7353L91.9237 59.2684C104.494 75.8008 110.78 84.067 107.356 89.4526C103.932 94.8382 93.7799 92.6543 73.4755 88.2866L66.68 86.8248C66.5354 86.7936 66.3832 86.828 66.2653 86.9175L60.7315 91.1251C44.1992 103.695 35.9331 109.98 30.5476 106.556C25.1621 103.133 27.3459 92.9806 31.7135 72.6766L33.1755 65.8797C33.2069 65.7351 33.1732 65.5837 33.0836 65.4658L28.8758 59.9318Z" fill="#3BA6FE"/>
</g>
<defs>
<clipPath id="clip0_2899_5253">
<rect width="120" height="120" rx="15" fill="white"/>
</clipPath>
</defs>
</svg>
