<svg width="120" height="120" viewBox="0 0 120 120" fill="none" xmlns="http://www.w3.org/2000/svg">
<rect width="120" height="120" rx="15" fill="#3BA6FE"/>
<path d="M35.7584 30.8417L30.8419 35.7582C19.5086 47.0915 13.8419 52.7582 13.8419 59.7998C13.8419 66.8414 19.5086 72.5081 30.8419 83.8414L35.7584 88.7579C47.0917 100.091 52.7584 105.758 59.8 105.758C66.8417 105.758 72.5083 100.091 83.8417 88.7579L88.7582 83.8414C100.091 72.5081 105.758 66.8414 105.758 59.7998C105.758 52.7582 100.091 47.0915 88.7582 35.7582L83.8417 30.8417C72.5083 19.5084 66.8417 13.8417 59.8 13.8417C52.7584 13.8417 47.0917 19.5084 35.7584 30.8417Z" fill="#F0F3F5"/>
<path d="M65.5551 51.522C63.2742 44.7792 62.1337 41.4078 59.9474 41.346C57.761 41.2843 56.4322 44.586 53.7746 51.1894L52.885 53.3997C52.866 53.4468 52.8273 53.4834 52.7791 53.4997L50.5223 54.2631C43.7796 56.544 40.4082 57.6845 40.3465 59.8709C40.2848 62.0573 43.5864 63.3861 50.1898 66.0437L52.4 66.9333C52.4472 66.9522 52.484 66.9909 52.5003 67.039L53.2637 69.2958C55.5445 76.0386 56.685 79.4101 58.8714 79.4718C61.0578 79.5335 62.3866 76.2318 65.0442 69.6284L65.9337 67.4183C65.9526 67.3712 65.9916 67.3346 66.0396 67.3183L68.2966 66.5548C75.0393 64.2739 78.4106 63.1334 78.4723 60.947C78.534 58.7607 75.2324 57.4319 68.629 54.7743L66.4185 53.8846C66.3714 53.8657 66.3349 53.8271 66.3187 53.779L65.5551 51.522Z" fill="#3BA6FE"/>
</svg>
