<svg width="120" height="120" viewBox="0 0 120 120" fill="none" xmlns="http://www.w3.org/2000/svg">
<g clip-path="url(#clip0_2899_5258)">
<rect width="120" height="120" rx="15" fill="#E4EAEF"/>
<path d="M31.1821 36.8006C18.5313 33.4108 5.52783 40.9183 2.13805 53.5692C-1.25173 66.22 6.25582 79.2235 18.9066 82.6132C31.5575 86.003 44.5609 78.4955 47.9507 65.8446C51.3405 53.1938 43.8329 40.1903 31.1821 36.8006Z" fill="#3BA6FE"/>
<path d="M51.3086 36.8006C38.6578 33.4108 25.6543 40.9183 22.2645 53.5692C18.8747 66.22 26.3823 79.2235 39.0331 82.6132C51.6839 86.003 64.6874 78.4955 68.0772 65.8446C71.467 53.1938 63.9594 40.1903 51.3086 36.8006Z" fill="#677987"/>
<path d="M101.094 36.8006C88.4429 33.4108 75.4395 40.9183 72.0497 53.5692C68.6599 66.22 76.1675 79.2235 88.8183 82.6132C101.469 86.003 114.473 78.4955 117.862 65.8446C121.252 53.1938 113.745 40.1903 101.094 36.8006Z" fill="#88D2FF"/>
<path d="M64.7671 36.8006C52.1163 33.4108 39.1128 40.9183 35.723 53.5692C32.3332 66.22 39.8408 79.2235 52.4916 82.6132C65.1424 86.003 78.1459 78.4955 81.5357 65.8446C84.9255 53.1938 77.4179 40.1903 64.7671 36.8006Z" fill="#3BA6FE"/>
</g>
<defs>
<clipPath id="clip0_2899_5258">
<rect width="120" height="120" rx="15" fill="white"/>
</clipPath>
</defs>
</svg>
