<svg width="120" height="120" viewBox="0 0 120 120" fill="none" xmlns="http://www.w3.org/2000/svg">
<rect width="120" height="120" rx="15" fill="#3BA6FE"/>
<path d="M61.8359 47.3889C33.0761 46.283 13.0893 65.3627 6.08409 82.1653C5.76688 82.9262 5.60828 83.3066 5.51763 84.1846C5.26201 86.6605 7.37437 89.8298 9.758 90.5466C10.6033 90.8008 11.2727 90.8008 12.6116 90.8008C14.2505 90.8008 15.0699 90.8008 15.6003 90.7047C17.6451 90.3343 18.5891 89.6842 19.6646 87.9062C19.9437 87.4449 20.3606 86.3531 21.1945 84.1694C25.5787 72.6888 38.4125 57.9773 67.1295 57.9773C93.0012 57.9773 106.596 39.6867 110.446 25.9054C110.456 25.8706 110.431 25.9577 110.486 25.4857C110.799 22.7563 108.182 19.3079 105.469 18.8755C105 18.8008 104.795 18.8008 104.384 18.8008C103.17 18.8008 102.562 18.8008 102.238 18.836C99.6847 19.1141 98.4288 20.0348 97.3951 22.3866C97.2641 22.6848 97.0012 23.5179 96.4755 25.1841C93.7299 33.8861 85.5877 48.3023 61.8359 47.3889Z" fill="#F0F3F5"/>
<path d="M66.6351 56.9883C37.8758 55.8824 17.8891 74.9624 10.8839 91.765C10.5667 92.5258 10.4081 92.9062 10.3174 93.7842C10.0618 96.2601 12.1742 99.4294 14.5578 100.146C15.4031 100.4 16.0725 100.4 17.4114 100.4C19.0502 100.4 19.8696 100.4 20.4001 100.304C22.4448 99.9339 23.3889 99.2838 24.4644 97.5058C24.7434 97.0445 25.1604 95.9527 25.9943 93.769C30.3785 82.2884 43.2122 67.5767 71.9295 67.5767C97.8004 67.5767 111.395 49.2869 115.245 35.5055C115.255 35.4708 115.231 35.5574 115.285 35.0854C115.599 32.3559 112.982 28.9076 110.269 28.4752C109.799 28.4004 109.594 28.4004 109.184 28.4004C107.969 28.4004 107.362 28.4004 107.038 28.4357C104.484 28.7138 103.228 29.6345 102.194 31.9863C102.063 32.2845 101.8 33.1177 101.275 34.784C98.5293 43.4861 90.3873 57.9022 66.6351 56.9883Z" fill="#677987"/>
</svg>
