<svg width="120" height="120" viewBox="0 0 120 120" fill="none" xmlns="http://www.w3.org/2000/svg">
<rect width="120" height="120" rx="15" fill="#3BA6FE"/>
<path fill-rule="evenodd" clip-rule="evenodd" d="M49.9091 57.9118C55.1922 60.1008 59.9995 55.2831 59.9995 49.5645V33.5524V17.5403C59.9995 11.8218 55.1925 7.00472 49.9091 9.19297C46.7107 10.518 43.8038 12.4601 41.3554 14.9085C38.9071 17.3568 36.9649 20.2634 35.6398 23.4624C34.3148 26.6614 33.6328 30.0899 33.6328 33.5524C33.6328 37.015 34.3148 40.4435 35.6398 43.6422C36.9649 46.8414 38.9071 49.7478 41.3554 52.1966C43.8038 54.6446 46.7107 56.587 49.9091 57.9118ZM70.0891 61.9258C64.8066 59.7365 59.9995 64.5541 59.9995 70.2723V86.285V102.298C59.9995 108.016 64.8066 112.834 70.0891 110.644C73.2883 109.319 76.1947 107.377 78.6435 104.929C81.0915 102.481 83.0339 99.5738 84.3587 96.3754C85.6843 93.1762 86.3659 89.7474 86.3659 86.285C86.3659 82.8226 85.6843 79.3938 84.3587 76.1946C83.0339 72.9962 81.0915 70.089 78.6435 67.641C76.1947 65.193 73.2883 63.2506 70.0891 61.9258ZM49.6454 59.9189C55.364 59.9189 60.1806 64.7258 57.9927 70.0093C56.6679 73.2085 54.7255 76.1149 52.2767 78.5629C49.8287 81.0117 46.9223 82.9541 43.7231 84.2789C40.5242 85.6037 37.0955 86.2861 33.6331 86.2861C30.1706 86.2861 26.7419 85.6037 23.543 84.2789C20.3441 82.9541 17.4375 81.0117 14.9891 78.5629C12.5407 76.1149 10.5986 73.2085 9.27354 70.0093C7.08529 64.726 11.9023 59.9189 17.6209 59.9189H33.6331H49.6454ZM62.0077 49.8292C59.8187 55.1123 64.6364 59.9196 70.355 59.9196H86.3669H102.379C108.097 59.9196 112.915 55.1123 110.726 49.8292C109.401 46.63 107.459 43.7236 105.011 41.2754C102.562 38.827 99.6557 36.8848 96.4573 35.5598C93.2581 34.2347 89.8293 33.5527 86.3669 33.5527C82.9045 33.5527 79.4757 34.2347 76.2765 35.5598C73.0781 36.8848 70.1709 38.827 67.7229 41.2754C65.2749 43.7236 63.3325 46.63 62.0077 49.8292Z" fill="#F0F3F5"/>
</svg>
