<svg width="120" height="120" viewBox="0 0 120 120" fill="none" xmlns="http://www.w3.org/2000/svg">
<rect width="120" height="120" rx="15" fill="#E4EAEF"/>
<path d="M30.6377 48.7632C42.8574 27.4939 48.9673 16.8593 57.9845 16.0665C58.9929 15.9778 60.0071 15.9778 61.0155 16.0665C70.0327 16.8593 76.1426 27.4939 88.3623 48.7632C100.582 70.0324 106.692 80.667 102.866 88.911C102.439 89.8329 101.932 90.7155 101.351 91.5488C96.1591 99 83.9394 99 59.5 99C35.0606 99 22.8409 99 17.6491 91.5488C17.0685 90.7155 16.5614 89.8329 16.1336 88.911C12.3082 80.667 18.4181 70.0324 30.6377 48.7632Z" fill="#3BA6FE"/>
<path d="M66.0517 55.019C63.7708 48.2762 62.6303 44.9048 60.4439 44.8431C58.2576 44.7814 56.9288 48.0831 54.2712 54.6865L53.3816 56.8968C53.3626 56.9439 53.3239 56.9805 53.2757 56.9968L51.0189 57.7602C44.2761 60.0411 40.9048 61.1816 40.843 63.368C40.7813 65.5543 44.083 66.8832 50.6864 69.5408L52.8966 70.4303C52.9438 70.4493 52.9806 70.488 52.9969 70.5361L53.7602 72.7928C56.0411 79.5357 57.1816 82.9071 59.368 82.9689C61.5543 83.0306 62.8832 79.7289 65.5408 73.1254L66.4303 70.9153C66.4492 70.8683 66.4882 70.8317 66.5362 70.8154L68.7932 70.0519C75.5359 67.771 78.9072 66.6305 78.9689 64.4441C79.0306 62.2577 75.7289 60.9289 69.1256 58.2713L66.9151 57.3817C66.868 57.3628 66.8315 57.3242 66.8152 57.2761L66.0517 55.019Z" fill="#F0F3F5"/>
</svg>
