<svg width="30" height="30" viewBox="0 0 30 30" fill="none" xmlns="http://www.w3.org/2000/svg">
<path d="M2.39602 22.2445C1.51868 21.2088 1.09954 19.8685 1.22068 18.5209C1.3416 17.1764 1.99864 15.9946 3.03929 15.136C3.99276 14.3494 5.106 14.0551 6.32681 14.1672C5.97738 13.8399 5.64306 13.4791 5.41998 13.0521C5.22276 12.6747 5.11782 12.269 5.06076 11.8497C4.94843 11.0238 5.22099 10.1578 5.71813 9.49942C5.87338 9.29384 6.06644 9.08669 6.26938 8.92708C6.90165 8.42974 7.80248 8.15308 8.60647 8.25802C9.48494 8.37271 10.3127 8.76728 10.9422 9.39262C11.1428 9.59192 11.3101 9.8203 11.4893 10.0381C11.4367 9.29452 11.5478 8.55348 11.7932 7.85041C12.2816 6.4513 13.3607 5.35389 14.6865 4.71577C15.9791 4.09369 17.5957 4.04372 18.9401 4.51628C20.351 5.01224 21.5194 6.05247 22.1629 7.39829C22.63 8.37522 22.8197 9.47741 22.6908 10.5544C22.6272 11.0864 22.4867 11.6059 22.3069 12.11C23.809 11.2665 26.035 10.262 24.8053 12.7891C25.9544 12.9496 27.096 13.5919 27.7992 14.5192C29.987 17.4044 28.4263 21.7944 24.6944 22.3206C24.3115 22.3745 23.9315 22.3721 23.546 22.3726L22.2369 22.3726L21.5546 22.3694C21.4962 22.3688 21.3829 22.3521 21.3291 22.3685C21.2926 22.3797 21.2897 22.4126 21.2757 22.4445C21.0506 22.9603 20.7743 23.4365 20.4144 23.8715C19.1707 25.375 17.1615 26.02 15.2553 25.7341C13.9027 25.5311 12.5505 24.7177 11.7422 23.6189C11.5114 23.3051 11.322 22.9873 11.1447 22.6405C10.9736 22.7849 10.8127 22.9405 10.6334 23.0749C7.55956 25.3787 4.18965 24.3618 2.39602 22.2445Z" fill="white"/>
</svg>
