<svg width="100" height="100" viewBox="0 0 100 100" fill="none" xmlns="http://www.w3.org/2000/svg">
<path d="M89.0936 50.1023C82.829 50.3747 76.5644 49.2852 71.117 46.2893C76.0197 37.3015 79.2882 27.2243 77.3816 16.8747C76.5644 11.1551 73.296 6.52505 68.3932 2.9844C64.0352 -0.0115359 58.8601 -1.10097 54.2298 1.35025C52.0508 2.71204 50.4166 5.16326 50.4166 7.61449C49.8718 14.9681 49.8718 22.3218 46.331 28.8584C37.3426 24.2283 27.2648 20.6877 16.9146 22.5942C6.83679 24.2283 -2.42391 33.7608 0.572196 44.3828C0.572196 44.6552 1.11694 44.6552 1.11694 44.9275C2.20644 48.7405 6.56442 49.5576 10.1053 50.1023C16.6422 49.0129 22.9068 51.1918 28.8991 53.643C24.8134 60.9966 22.3621 69.1674 21.8173 77.3381C21.545 81.9682 22.6345 86.5983 25.3582 90.6837C25.9029 91.2284 26.1753 91.7731 26.7201 92.5902C30.8057 97.4926 37.0703 101.578 43.6072 99.3991C43.8796 99.3991 44.152 99.3991 44.4244 99.3991C47.4205 97.765 49.8718 95.0414 49.8718 91.5007C49.8718 84.4194 50.4166 77.3381 53.6851 71.0739C56.6812 72.9804 59.9496 74.3422 63.2181 75.4316C64.3076 75.704 65.1247 75.704 66.2142 76.2487C66.759 76.521 67.3037 76.521 67.8485 76.521C68.3932 76.7934 68.6656 76.7934 69.2104 77.0658C76.2921 78.6999 83.3738 78.9723 89.6384 75.1593C95.6306 71.6186 100.261 65.6267 99.9886 58.5454C99.7162 53.0983 94.2687 49.2852 89.0936 50.1023Z" fill="#A5CFE5"/>
</svg>
