<svg width="120" height="120" viewBox="0 0 120 120" fill="none" xmlns="http://www.w3.org/2000/svg">
<rect width="120" height="120" rx="15" fill="#E4EAEF"/>
<path fill-rule="evenodd" clip-rule="evenodd" d="M60.4918 48.0608C60.9115 47.7651 61.3354 47.4689 61.7629 47.1726C66.4939 43.8943 71.6628 40.6228 76.5375 38.1734C81.4285 35.7154 85.9602 34.1182 89.4348 34.1182C103.541 34.1182 114.984 45.6652 114.984 59.9185C114.984 74.1728 103.541 85.719 89.4348 85.719C85.9602 85.719 81.4285 84.1225 76.5375 81.6645C71.6628 79.2142 66.4939 75.9436 61.7629 72.6645C61.3355 72.3683 60.9118 72.0721 60.4922 71.7765C60.0724 72.0723 59.6483 72.3687 59.2206 72.6651C54.4901 75.9434 49.3212 79.2149 44.4466 81.6642C39.5553 84.1222 35.0243 85.7196 31.5492 85.7196C17.4431 85.7196 6 74.1725 6 59.9192C6 45.6649 17.4431 34.1182 31.5492 34.1182C35.0243 34.1182 39.5553 35.7153 44.4466 38.1734C49.3212 40.6225 54.4901 43.894 59.2206 47.1723C59.6482 47.4687 60.0721 47.7651 60.4918 48.0608Z" fill="#3BA6FE"/>
</svg>
