<svg width="100" height="100" viewBox="0 0 100 100" fill="none" xmlns="http://www.w3.org/2000/svg">
<path d="M80.6848 30.6969H69.279V19.2911C69.279 8.63275 60.6463 0 49.9879 0C39.3296 0 30.6969 8.63275 30.6969 19.2911V30.6969H19.2911C8.63275 30.6969 0 39.3296 0 49.9879C0 60.6463 8.63275 69.279 19.2911 69.279H30.6969V80.7089C30.6969 91.3673 39.3296 100 49.9879 100C60.6463 100 69.279 91.3673 69.279 80.7089V69.279H80.7089C91.3673 69.279 100 60.6463 100 49.9879C99.9759 39.3296 91.3431 30.6969 80.6848 30.6969Z" fill="#FFFFFF"/>
</svg>
