<svg width="30" height="30" viewBox="0 0 30 30" fill="none" xmlns="http://www.w3.org/2000/svg">
<path d="M19.6155 4.16084L19.6944 4.15514C21.4884 4.08608 23.2431 4.77302 24.5459 6.00968C25.9607 7.35254 26.8022 9.1841 26.8546 11.1502C26.8886 12.4239 26.6503 13.712 26.1308 14.8768C25.8596 15.4848 25.5171 16.0452 25.1361 16.588C24.0909 18.077 22.7524 19.3342 21.4047 20.5405L20.7723 21.1249L18.5211 23.0689L16.8282 24.4506L15.6262 25.4633L14.9238 26.1833C14.3129 25.4708 13.5813 24.9017 12.8555 24.3164L11.2152 22.9816L8.93553 21.0481C7.83974 20.0896 6.7688 19.09 5.81679 17.9842L5.46344 17.5348C5.0685 17.0475 4.68246 16.5468 4.35209 16.0119C3.43102 14.5205 2.88964 12.7388 3.01897 10.9722C3.05883 10.4282 3.13481 9.88951 3.28277 9.36336C3.66215 8.0143 4.46408 6.77833 5.51789 5.8668C6.8937 4.67673 8.74519 4.04768 10.554 4.19301C11.6655 4.28234 12.711 4.6936 13.6307 5.31931C14.1178 5.65074 14.5466 6.01358 14.9273 6.46563L15.0417 6.32751C15.844 5.41135 17.0108 4.71056 18.1769 4.39166C18.6469 4.26314 19.1299 4.1921 19.6155 4.16084Z" fill="white"/>
</svg>
