<svg width="52" height="52" viewBox="0 0 52 52" fill="none" xmlns="http://www.w3.org/2000/svg">
<rect width="52" height="52" rx="12" fill="#3BA6FE"/>
<path fill-rule="evenodd" clip-rule="evenodd" d="M36.9417 17.9512C37.6591 17.537 38.5765 17.7828 38.9907 18.5003C40.3072 20.7805 41.0003 23.3672 41.0003 26.0002C41.0003 28.6333 40.3072 31.22 38.9907 33.5002C38.5765 34.2177 37.6591 34.4635 36.9417 34.0493C36.2242 33.6351 35.9784 32.7177 36.3926 32.0002C37.4458 30.176 38.0003 28.1067 38.0003 26.0002C38.0003 23.8938 37.4458 21.8245 36.3926 20.0002C35.9784 19.2828 36.2242 18.3654 36.9417 17.9512Z" fill="white"/>
<path fill-rule="evenodd" clip-rule="evenodd" d="M32.5989 20.458C33.3163 20.0438 34.2337 20.2896 34.6479 21.0071C35.5243 22.525 35.9857 24.2469 35.9857 25.9997C35.9857 27.7525 35.5243 29.4744 34.6479 30.9924C34.2337 31.7098 33.3163 31.9556 32.5989 31.5414C31.8814 31.1272 31.6356 30.2098 32.0498 29.4924C32.6629 28.4305 32.9857 27.2259 32.9857 25.9997C32.9857 24.7736 32.6629 23.569 32.0498 22.5071C31.6356 21.7896 31.8814 20.8723 32.5989 20.458Z" fill="white"/>
<path fill-rule="evenodd" clip-rule="evenodd" d="M24.2596 14C22.0702 14 19.9901 14.9567 18.5652 16.6191C18.0562 17.2129 17.4646 17.6732 16.6756 17.8266L15.8548 17.9863C13.0354 18.5345 11 21.0038 11 23.876V28.1241C11 30.9962 13.0354 33.4655 15.8548 34.0137L16.6756 34.1734C17.4646 34.3268 18.0562 34.7871 18.5652 35.3809C19.9901 37.0433 22.0702 38 24.2596 38H24.5C26.9853 38 29 35.9853 29 33.5V18.5C29 16.0147 26.9853 14 24.5 14H24.2596Z" fill="white"/>
</svg>
