<svg width="52" height="52" viewBox="0 0 52 52" fill="none" xmlns="http://www.w3.org/2000/svg">
<rect width="52" height="52" rx="12" fill="#3BA6FE"/>
<path fill-rule="evenodd" clip-rule="evenodd" d="M14 15.5C14 14.6716 14.6716 14 15.5 14H36.5C37.3284 14 38 14.6716 38 15.5C38 16.3284 37.3284 17 36.5 17H15.5C14.6716 17 14 16.3284 14 15.5Z" fill="white"/>
<path fill-rule="evenodd" clip-rule="evenodd" d="M21.1667 13C21.1667 11.8954 22.0621 11 23.1667 11L28.8333 11C29.9379 11 30.8333 11.8954 30.8333 13C30.8333 13.5523 31.281 14 31.8333 14H32V17H31.8333C29.9695 17 28.4034 15.7252 27.9594 14L24.0406 14C23.5966 15.7252 22.0305 17 20.1667 17H20V14L20.1667 14C20.719 14 21.1667 13.5523 21.1667 13Z" fill="white"/>
<path fill-rule="evenodd" clip-rule="evenodd" d="M17 20C16.5805 20 16.1802 20.1756 15.8962 20.4843C15.6121 20.793 15.4704 21.2065 15.5052 21.6246L16.6613 35.4983C16.9205 38.608 19.5201 41 22.6406 41H29.3594C32.4799 41 35.0795 38.608 35.3387 35.4983L36.4948 21.6246C36.5297 21.2065 36.3879 20.793 36.1038 20.4843C35.8198 20.1756 35.4195 20 35 20H17Z" fill="white"/>
</svg>
