<svg width="52" height="52" viewBox="0 0 52 52" fill="none" xmlns="http://www.w3.org/2000/svg">
<rect width="52" height="52" rx="12" fill="#3BA6FE"/>
<path fill-rule="evenodd" clip-rule="evenodd" d="M26 11C17.7157 11 11 17.7157 11 26C11 28.7229 11.7268 31.2794 12.9969 33.4825C13.2556 33.9311 13.2999 34.4774 13.0817 34.9471L11.8011 37.7023C11.0148 39.19 12.091 41 13.7924 41H26C34.2843 41 41 34.2843 41 26C41 17.7157 34.2843 11 26 11ZM21.5 21.5C20.6716 21.5 20 22.1716 20 23C20 23.8284 20.6716 24.5 21.5 24.5H24.5C25.3284 24.5 26 23.8284 26 23C26 22.1716 25.3284 21.5 24.5 21.5H21.5ZM21.5 27.5C20.6716 27.5 20 28.1716 20 29C20 29.8284 20.6716 30.5 21.5 30.5H30.5C31.3284 30.5 32 29.8284 32 29C32 28.1716 31.3284 27.5 30.5 27.5H21.5Z" fill="white"/>
</svg>
