<svg width="52" height="52" viewBox="0 0 52 52" fill="none" xmlns="http://www.w3.org/2000/svg">
<rect width="52" height="52" rx="12" fill="#3BA6FE"/>
<path fill-rule="evenodd" clip-rule="evenodd" d="M20.8289 12.5C19.9036 12.5 18.8572 12.5975 17.8578 12.9382C11.832 14.9056 9.89475 21.3408 11.5978 26.6448L11.6049 26.6671L11.6128 26.6891C12.5512 29.326 14.063 31.7189 16.0297 33.6871L16.041 33.6985L16.0526 33.7096C18.8564 36.3983 21.9084 38.7427 25.2131 40.7771L25.9897 41.2552L26.7716 40.7857C30.0835 38.7971 33.1943 36.3879 35.9644 33.7209L35.9731 33.7126L35.9816 33.7041C37.9653 31.732 39.4773 29.3215 40.4018 26.6821L40.4096 26.6601L40.4166 26.6378C42.0874 21.3454 40.1598 14.9025 34.1756 12.964C33.196 12.6381 32.185 12.5 31.1968 12.5C28.9738 12.5 27.3284 13.4308 26.0002 14.3794C24.6825 13.438 23.026 12.5 20.8289 12.5Z" fill="white"/>
</svg>
