<svg width="52" height="52" viewBox="0 0 52 52" fill="none" xmlns="http://www.w3.org/2000/svg">
<rect width="52" height="52" rx="12" fill="#FFC400"/>
<path fill-rule="evenodd" clip-rule="evenodd" d="M13 12.7998C11.8954 12.7998 11 13.6952 11 14.7998V29.1998C11 34.7226 15.4771 39.1998 21 39.1998H27.4C32.9228 39.1998 37.4 34.7227 37.4 29.1998V14.7998C37.4 13.6952 36.5046 12.7998 35.4 12.7998H13ZM37.4002 16.0991H38.6377C41.5994 16.0991 44.0002 18.5 44.0002 21.4616C44.0002 24.4232 41.5994 26.8241 38.6377 26.8241H37.4002V23.5237H38.6377C39.7768 23.5237 40.7002 22.6003 40.7002 21.4612C40.7002 20.3221 39.7768 19.3987 38.6377 19.3987H37.4002V16.0991Z" fill="white"/>
</svg>
