<svg width="230" height="80" viewBox="0 0 230 80" fill="none" xmlns="http://www.w3.org/2000/svg">
<path d="M91.118 45.03C91.0767 46.0633 91.056 47.1587 91.056 48.316C91.0973 49.432 91.2007 50.5273 91.366 51.602C90.7873 51.9327 90.0847 52.2013 89.258 52.408C88.4313 52.6147 87.5633 52.718 86.654 52.718C86.5713 51.6433 86.282 50.672 85.786 49.804C85.3313 48.8947 84.67 48.1713 83.802 47.634C82.9753 47.0553 81.942 46.766 80.702 46.766C79.7513 46.766 78.9867 47.014 78.408 47.51C77.8293 48.006 77.54 48.6467 77.54 49.432C77.54 50.0107 77.6847 50.548 77.974 51.044C78.2633 51.4987 78.8833 52.0153 79.834 52.594C80.826 53.1313 82.314 53.8133 84.298 54.64C86.654 55.5907 88.4933 56.5 89.816 57.368C91.1387 58.1947 92.0687 59.1247 92.606 60.158C93.1847 61.15 93.474 62.3487 93.474 63.754C93.474 65.614 92.9367 67.2053 91.862 68.528C90.8287 69.8507 89.3407 70.8633 87.398 71.566C85.4553 72.2273 83.1613 72.558 80.516 72.558C77.9533 72.558 75.8453 72.372 74.192 72C72.5387 71.628 70.9267 71.0907 69.356 70.388C69.4387 69.6027 69.5007 68.7553 69.542 67.846C69.5833 66.8953 69.5833 65.9653 69.542 65.056C69.542 64.1467 69.5007 63.3613 69.418 62.7C69.9967 62.328 70.7407 62.0593 71.65 61.894C72.5593 61.7287 73.4273 61.646 74.254 61.646C74.502 63.9607 75.1633 65.6967 76.238 66.854C77.354 68.0113 78.7593 68.59 80.454 68.59C81.694 68.59 82.686 68.3213 83.43 67.784C84.174 67.2053 84.546 66.4407 84.546 65.49C84.546 64.8287 84.3807 64.2707 84.05 63.816C83.7607 63.32 83.182 62.824 82.314 62.328C81.4873 61.832 80.2473 61.2533 78.594 60.592C76.6513 59.848 75.0187 59.0833 73.696 58.298C72.3733 57.5127 71.3607 56.562 70.658 55.446C69.9553 54.2887 69.604 52.8213 69.604 51.044C69.604 49.68 69.914 48.502 70.534 47.51C71.154 46.518 72.0013 45.6913 73.076 45.03C74.192 44.3687 75.432 43.8727 76.796 43.542C78.2013 43.2113 79.6687 43.046 81.198 43.046C83.3887 43.046 85.2487 43.2113 86.778 43.542C88.3073 43.8727 89.754 44.3687 91.118 45.03ZM112.751 72.558C109.237 72.558 106.385 71.9173 104.195 70.636C102.004 69.3547 100.392 67.6187 99.3587 65.428C98.3253 63.196 97.8087 60.716 97.8087 57.988C97.8087 55.0533 98.3873 52.47 99.5447 50.238C100.702 48.006 102.355 46.2493 104.505 44.968C106.695 43.6867 109.237 43.046 112.131 43.046C115.107 43.046 117.525 43.6247 119.385 44.782C121.286 45.898 122.691 47.4687 123.601 49.494C124.51 51.478 125.027 53.7307 125.151 56.252C124.861 57.4507 124.345 58.422 123.601 59.166C122.567 59.166 121.307 59.1867 119.819 59.228C118.331 59.228 116.719 59.2487 114.983 59.29C113.288 59.29 111.552 59.3313 109.775 59.414C108.039 59.4553 106.385 59.538 104.815 59.662V55.57H116.719C116.719 52.8007 116.305 50.672 115.479 49.184C114.693 47.6547 113.536 46.89 112.007 46.89C111.015 46.89 110.126 47.2207 109.341 47.882C108.555 48.502 107.935 49.5147 107.481 50.92C107.026 52.284 106.799 54.082 106.799 56.314C106.799 58.422 107.067 60.3647 107.605 62.142C108.142 63.9193 109.031 65.3247 110.271 66.358C111.552 67.3913 113.288 67.908 115.479 67.908C116.884 67.908 118.289 67.6393 119.695 67.102C121.1 66.5647 122.299 65.862 123.291 64.994C123.663 65.2007 124.014 65.614 124.345 66.234C124.675 66.854 124.841 67.474 124.841 68.094C123.311 69.6233 121.555 70.76 119.571 71.504C117.587 72.2067 115.313 72.558 112.751 72.558ZM142.867 61.274C142.867 63.0513 143.053 64.436 143.425 65.428C143.838 66.42 144.479 67.1433 145.347 67.598C146.256 68.0113 147.475 68.28 149.005 68.404C149.211 68.9 149.335 69.4787 149.377 70.14C149.418 70.8013 149.439 71.4833 149.439 72.186C148.736 72.1447 147.847 72.1033 146.773 72.062C145.739 72.062 144.623 72.0413 143.425 72C142.226 72 141.048 72 139.891 72C138.031 72 136.109 72 134.125 72C132.141 72.0413 130.57 72.1033 129.413 72.186C129.413 71.318 129.433 70.5947 129.475 70.016C129.557 69.396 129.661 68.8587 129.785 68.404C130.901 68.3213 131.769 68.1147 132.389 67.784C133.009 67.4533 133.422 66.854 133.629 65.986C133.877 65.0767 134.001 63.816 134.001 62.204V57.926H142.867V61.274ZM142.867 53.71V59.042H134.001V52.284L142.867 46.394C142.867 47.4273 142.743 48.4813 142.495 49.556C142.288 50.5893 142.019 51.8293 141.689 53.276L142.867 53.71ZM141.503 53.524C141.833 52.5733 142.164 51.6227 142.495 50.672C142.825 49.7213 143.135 48.998 143.425 48.502C144.334 47.0553 145.45 45.8567 146.773 44.906C148.095 43.9553 149.583 43.48 151.237 43.48C152.849 43.48 154.316 43.976 155.639 44.968C155.515 45.7947 155.391 46.7453 155.267 47.82C155.184 48.8533 155.122 49.9073 155.081 50.982C155.081 52.0567 155.101 53.0487 155.143 53.958C154.523 54.206 153.696 54.392 152.663 54.516C151.671 54.64 150.782 54.702 149.997 54.702C149.955 53.0487 149.707 51.912 149.253 51.292C148.798 50.6307 148.157 50.3 147.331 50.3C146.711 50.3 146.049 50.672 145.347 51.416C144.644 52.1187 144.045 53.0693 143.549 54.268C143.094 55.4253 142.867 56.686 142.867 58.05L141.503 53.524ZM134.001 59.042V53.648C134.001 52.4493 133.897 51.5193 133.691 50.858C133.525 50.1553 133.112 49.6387 132.451 49.308C131.831 48.936 130.839 48.7087 129.475 48.626C129.475 48.006 129.516 47.4067 129.599 46.828C129.723 46.208 129.929 45.6293 130.219 45.092C132.409 45.092 134.517 44.8853 136.543 44.472C138.609 44.0173 140.118 43.542 141.069 43.046C141.647 43.2527 142.081 43.6247 142.371 44.162C142.701 44.658 142.867 45.402 142.867 46.394L134.001 59.042ZM173.842 72.558C170.329 72.558 167.477 71.9173 165.286 70.636C163.096 69.3547 161.484 67.6187 160.45 65.428C159.417 63.196 158.9 60.716 158.9 57.988C158.9 55.0533 159.479 52.47 160.636 50.238C161.794 48.006 163.447 46.2493 165.596 44.968C167.787 43.6867 170.329 43.046 173.222 43.046C176.198 43.046 178.616 43.6247 180.476 44.782C182.378 45.898 183.783 47.4687 184.692 49.494C185.602 51.478 186.118 53.7307 186.242 56.252C185.953 57.4507 185.436 58.422 184.692 59.166C183.659 59.166 182.398 59.1867 180.91 59.228C179.422 59.228 177.81 59.2487 176.074 59.29C174.38 59.29 172.644 59.3313 170.866 59.414C169.13 59.4553 167.477 59.538 165.906 59.662V55.57H177.81C177.81 52.8007 177.397 50.672 176.57 49.184C175.785 47.6547 174.628 46.89 173.098 46.89C172.106 46.89 171.218 47.2207 170.432 47.882C169.647 48.502 169.027 49.5147 168.572 50.92C168.118 52.284 167.89 54.082 167.89 56.314C167.89 58.422 168.159 60.3647 168.696 62.142C169.234 63.9193 170.122 65.3247 171.362 66.358C172.644 67.3913 174.38 67.908 176.57 67.908C177.976 67.908 179.381 67.6393 180.786 67.102C182.192 66.5647 183.39 65.862 184.382 64.994C184.754 65.2007 185.106 65.614 185.436 66.234C185.767 66.854 185.932 67.474 185.932 68.094C184.403 69.6233 182.646 70.76 180.662 71.504C178.678 72.2067 176.405 72.558 173.842 72.558ZM195.092 59.042V53.648C195.092 52.4493 194.989 51.5193 194.782 50.858C194.617 50.1553 194.204 49.6387 193.542 49.308C192.922 48.936 191.93 48.7087 190.566 48.626C190.566 48.006 190.608 47.4067 190.69 46.828C190.814 46.208 191.021 45.6293 191.31 45.092C193.501 45.092 195.609 44.8853 197.634 44.472C199.701 44.0173 201.21 43.542 202.16 43.046C202.739 43.2527 203.173 43.6247 203.462 44.162C203.793 44.658 203.958 45.402 203.958 46.394L195.092 59.042ZM223.612 63.01C223.612 65.0767 223.84 66.5027 224.294 67.288C224.79 68.032 225.596 68.404 226.712 68.404C226.919 68.9 227.043 69.458 227.084 70.078C227.167 70.6567 227.208 71.3593 227.208 72.186C226.299 72.1447 225.121 72.1033 223.674 72.062C222.269 72.0207 220.884 72 219.52 72C218.611 72 217.578 72 216.42 72C215.304 72.0413 214.23 72.062 213.196 72.062C212.163 72.1033 211.336 72.1447 210.716 72.186C210.716 71.442 210.737 70.76 210.778 70.14C210.82 69.52 210.944 68.9413 211.15 68.404C212.308 68.404 213.196 67.9907 213.816 67.164C214.436 66.3373 214.746 64.8287 214.746 62.638V55.88C214.746 53.276 214.333 51.478 213.506 50.486C212.68 49.4527 211.502 48.936 209.972 48.936C208.98 48.936 208.009 49.3287 207.058 50.114C206.149 50.858 205.405 51.974 204.826 53.462C204.248 54.9087 203.958 56.7273 203.958 58.918V63.01C203.958 65.118 204.227 66.544 204.764 67.288C205.343 68.032 206.252 68.404 207.492 68.404C207.74 68.9827 207.885 69.5613 207.926 70.14C207.968 70.7187 207.988 71.4007 207.988 72.186C207.41 72.1447 206.624 72.1033 205.632 72.062C204.64 72.062 203.607 72.0413 202.532 72C201.499 72 200.507 72 199.556 72C198.606 72 197.552 72 196.394 72C195.237 72.0413 194.121 72.062 193.046 72.062C191.972 72.1033 191.124 72.1447 190.504 72.186C190.504 71.4007 190.546 70.6773 190.628 70.016C190.711 69.3547 190.835 68.8173 191 68.404C192.612 68.404 193.687 68.032 194.224 67.288C194.803 66.5027 195.092 65.0767 195.092 63.01V53.648L203.958 46.394C203.958 46.89 203.896 47.4687 203.772 48.13C203.69 48.75 203.545 49.4113 203.338 50.114C203.586 49.618 203.834 49.122 204.082 48.626C204.33 48.13 204.661 47.6547 205.074 47.2C205.901 46.2493 207.058 45.3813 208.546 44.596C210.034 43.7693 211.75 43.356 213.692 43.356C215.428 43.356 217.04 43.6867 218.528 44.348C220.058 45.0093 221.277 46.084 222.186 47.572C223.137 49.06 223.612 51.0233 223.612 53.462V63.01Z" fill="#ECE8D9"/>
<g clip-path="url(#clip0_680_4)">
<path d="M92.0626 32.4908C92.6898 29.965 88.9396 27.8263 83.6868 27.7186C83.1009 27.7071 82.5283 27.7204 81.956 27.7567C82.1393 27.2201 82.302 26.6642 82.4435 26.0955C83.7074 20.9959 82.622 16.8218 80.0172 16.766C77.4152 16.7138 74.2788 20.8004 73.0185 25.8972C72.2534 28.9889 72.3522 31.7394 73.1296 33.4398C73.2281 33.6965 73.3734 33.9464 73.5627 34.186C73.7448 34.4312 73.9483 34.6366 74.1704 34.7985C75.6097 35.9919 78.2432 36.8008 81.4238 36.8701C86.6738 36.9741 91.4389 35.0138 92.0626 32.4908Z" fill="#8DA145"/>
</g>
<path d="M40.3346 39.4695C44.8845 81.3175 -2.8137 57.2974 33.517 36.0363C-2.8137 57.2974 5.36162 4.36476 34.6885 28.4808C5.35527 4.37737 58.1087 -4.31143 42.2184 27.2431C58.1087 -4.31143 82.5378 43.2453 45.7073 34.0297C82.5442 43.2327 44.8845 81.3175 40.3346 39.4695Z" fill="#ECE8D9"/>
<path d="M40.3346 39.4695C44.8845 81.3175 -2.8137 57.2974 33.517 36.0363C-2.8137 57.2974 5.36162 4.36476 34.6885 28.4808C5.35527 4.37737 58.1087 -4.31143 42.2184 27.2431C58.1087 -4.31143 82.5378 43.2453 45.7073 34.0297C82.5442 43.2327 44.8845 81.3175 40.3346 39.4695Z" fill="url(#paint0_radial_680_4)" fill-opacity="0.4"/>
<defs>
<radialGradient id="paint0_radial_680_4" cx="0" cy="0" r="1" gradientUnits="userSpaceOnUse" gradientTransform="translate(39 34) rotate(-66.3706) scale(26.1964 26.8353)">
<stop offset="0.28" stop-color="#EDBE5F"/>
<stop offset="1" stop-color="#EDBE5F" stop-opacity="0"/>
</radialGradient>
<clipPath id="clip0_680_4">
<rect width="23.0307" height="23.0307" fill="white" transform="translate(82.2831 13) rotate(52.5474)"/>
</clipPath>
</defs>
</svg>
