<svg width="260" height="120" viewBox="0 0 260 120" fill="none" xmlns="http://www.w3.org/2000/svg">
<path d="M73.118 54.03C73.0767 55.0633 73.056 56.1587 73.056 57.316C73.0973 58.432 73.2007 59.5273 73.366 60.602C72.7873 60.9327 72.0847 61.2013 71.258 61.408C70.4313 61.6147 69.5633 61.718 68.654 61.718C68.5713 60.6433 68.282 59.672 67.786 58.804C67.3313 57.8947 66.67 57.1713 65.802 56.634C64.9753 56.0553 63.942 55.766 62.702 55.766C61.7513 55.766 60.9867 56.014 60.408 56.51C59.8293 57.006 59.54 57.6467 59.54 58.432C59.54 59.0107 59.6847 59.548 59.974 60.044C60.2633 60.4987 60.8833 61.0153 61.834 61.594C62.826 62.1313 64.314 62.8133 66.298 63.64C68.654 64.5907 70.4933 65.5 71.816 66.368C73.1387 67.1947 74.0687 68.1247 74.606 69.158C75.1847 70.15 75.474 71.3487 75.474 72.754C75.474 74.614 74.9367 76.2053 73.862 77.528C72.8287 78.8507 71.3407 79.8633 69.398 80.566C67.4553 81.2273 65.1613 81.558 62.516 81.558C59.9533 81.558 57.8453 81.372 56.192 81C54.5387 80.628 52.9267 80.0907 51.356 79.388C51.4387 78.6027 51.5007 77.7553 51.542 76.846C51.5833 75.8953 51.5833 74.9653 51.542 74.056C51.542 73.1467 51.5007 72.3613 51.418 71.7C51.9967 71.328 52.7407 71.0593 53.65 70.894C54.5593 70.7287 55.4273 70.646 56.254 70.646C56.502 72.9607 57.1633 74.6967 58.238 75.854C59.354 77.0113 60.7593 77.59 62.454 77.59C63.694 77.59 64.686 77.3213 65.43 76.784C66.174 76.2053 66.546 75.4407 66.546 74.49C66.546 73.8287 66.3807 73.2707 66.05 72.816C65.7607 72.32 65.182 71.824 64.314 71.328C63.4873 70.832 62.2473 70.2533 60.594 69.592C58.6513 68.848 57.0187 68.0833 55.696 67.298C54.3733 66.5127 53.3607 65.562 52.658 64.446C51.9553 63.2887 51.604 61.8213 51.604 60.044C51.604 58.68 51.914 57.502 52.534 56.51C53.154 55.518 54.0013 54.6913 55.076 54.03C56.192 53.3687 57.432 52.8727 58.796 52.542C60.2013 52.2113 61.6687 52.046 63.198 52.046C65.3887 52.046 67.2487 52.2113 68.778 52.542C70.3073 52.8727 71.754 53.3687 73.118 54.03ZM94.7507 81.558C91.2373 81.558 88.3853 80.9173 86.1947 79.636C84.004 78.3547 82.392 76.6187 81.3587 74.428C80.3253 72.196 79.8087 69.716 79.8087 66.988C79.8087 64.0533 80.3873 61.47 81.5447 59.238C82.702 57.006 84.3553 55.2493 86.5047 53.968C88.6953 52.6867 91.2373 52.046 94.1307 52.046C97.1067 52.046 99.5247 52.6247 101.385 53.782C103.286 54.898 104.691 56.4687 105.601 58.494C106.51 60.478 107.027 62.7307 107.151 65.252C106.861 66.4507 106.345 67.422 105.601 68.166C104.567 68.166 103.307 68.1867 101.819 68.228C100.331 68.228 98.7187 68.2487 96.9827 68.29C95.288 68.29 93.552 68.3313 91.7747 68.414C90.0387 68.4553 88.3853 68.538 86.8147 68.662V64.57H98.7187C98.7187 61.8007 98.3053 59.672 97.4787 58.184C96.6933 56.6547 95.536 55.89 94.0067 55.89C93.0147 55.89 92.126 56.2207 91.3407 56.882C90.5553 57.502 89.9353 58.5147 89.4807 59.92C89.026 61.284 88.7987 63.082 88.7987 65.314C88.7987 67.422 89.0673 69.3647 89.6047 71.142C90.142 72.9193 91.0307 74.3247 92.2707 75.358C93.552 76.3913 95.288 76.908 97.4787 76.908C98.884 76.908 100.289 76.6393 101.695 76.102C103.1 75.5647 104.299 74.862 105.291 73.994C105.663 74.2007 106.014 74.614 106.345 75.234C106.675 75.854 106.841 76.474 106.841 77.094C105.311 78.6233 103.555 79.76 101.571 80.504C99.5867 81.2067 97.3133 81.558 94.7507 81.558ZM124.867 70.274C124.867 72.0513 125.053 73.436 125.425 74.428C125.838 75.42 126.479 76.1433 127.347 76.598C128.256 77.0113 129.475 77.28 131.005 77.404C131.211 77.9 131.335 78.4787 131.377 79.14C131.418 79.8013 131.439 80.4833 131.439 81.186C130.736 81.1447 129.847 81.1033 128.773 81.062C127.739 81.062 126.623 81.0413 125.425 81C124.226 81 123.048 81 121.891 81C120.031 81 118.109 81 116.125 81C114.141 81.0413 112.57 81.1033 111.413 81.186C111.413 80.318 111.433 79.5947 111.475 79.016C111.557 78.396 111.661 77.8587 111.785 77.404C112.901 77.3213 113.769 77.1147 114.389 76.784C115.009 76.4533 115.422 75.854 115.629 74.986C115.877 74.0767 116.001 72.816 116.001 71.204V66.926H124.867V70.274ZM124.867 62.71V68.042H116.001V61.284L124.867 55.394C124.867 56.4273 124.743 57.4813 124.495 58.556C124.288 59.5893 124.019 60.8293 123.689 62.276L124.867 62.71ZM123.503 62.524C123.833 61.5733 124.164 60.6227 124.495 59.672C124.825 58.7213 125.135 57.998 125.425 57.502C126.334 56.0553 127.45 54.8567 128.773 53.906C130.095 52.9553 131.583 52.48 133.237 52.48C134.849 52.48 136.316 52.976 137.639 53.968C137.515 54.7947 137.391 55.7453 137.267 56.82C137.184 57.8533 137.122 58.9073 137.081 59.982C137.081 61.0567 137.101 62.0487 137.143 62.958C136.523 63.206 135.696 63.392 134.663 63.516C133.671 63.64 132.782 63.702 131.997 63.702C131.955 62.0487 131.707 60.912 131.253 60.292C130.798 59.6307 130.157 59.3 129.331 59.3C128.711 59.3 128.049 59.672 127.347 60.416C126.644 61.1187 126.045 62.0693 125.549 63.268C125.094 64.4253 124.867 65.686 124.867 67.05L123.503 62.524ZM116.001 68.042V62.648C116.001 61.4493 115.897 60.5193 115.691 59.858C115.525 59.1553 115.112 58.6387 114.451 58.308C113.831 57.936 112.839 57.7087 111.475 57.626C111.475 57.006 111.516 56.4067 111.599 55.828C111.723 55.208 111.929 54.6293 112.219 54.092C114.409 54.092 116.517 53.8853 118.543 53.472C120.609 53.0173 122.118 52.542 123.069 52.046C123.647 52.2527 124.081 52.6247 124.371 53.162C124.701 53.658 124.867 54.402 124.867 55.394L116.001 68.042ZM155.842 81.558C152.329 81.558 149.477 80.9173 147.286 79.636C145.096 78.3547 143.484 76.6187 142.45 74.428C141.417 72.196 140.9 69.716 140.9 66.988C140.9 64.0533 141.479 61.47 142.636 59.238C143.794 57.006 145.447 55.2493 147.596 53.968C149.787 52.6867 152.329 52.046 155.222 52.046C158.198 52.046 160.616 52.6247 162.476 53.782C164.378 54.898 165.783 56.4687 166.692 58.494C167.602 60.478 168.118 62.7307 168.242 65.252C167.953 66.4507 167.436 67.422 166.692 68.166C165.659 68.166 164.398 68.1867 162.91 68.228C161.422 68.228 159.81 68.2487 158.074 68.29C156.38 68.29 154.644 68.3313 152.866 68.414C151.13 68.4553 149.477 68.538 147.906 68.662V64.57H159.81C159.81 61.8007 159.397 59.672 158.57 58.184C157.785 56.6547 156.628 55.89 155.098 55.89C154.106 55.89 153.218 56.2207 152.432 56.882C151.647 57.502 151.027 58.5147 150.572 59.92C150.118 61.284 149.89 63.082 149.89 65.314C149.89 67.422 150.159 69.3647 150.696 71.142C151.234 72.9193 152.122 74.3247 153.362 75.358C154.644 76.3913 156.38 76.908 158.57 76.908C159.976 76.908 161.381 76.6393 162.786 76.102C164.192 75.5647 165.39 74.862 166.382 73.994C166.754 74.2007 167.106 74.614 167.436 75.234C167.767 75.854 167.932 76.474 167.932 77.094C166.403 78.6233 164.646 79.76 162.662 80.504C160.678 81.2067 158.405 81.558 155.842 81.558ZM177.092 68.042V62.648C177.092 61.4493 176.989 60.5193 176.782 59.858C176.617 59.1553 176.204 58.6387 175.542 58.308C174.922 57.936 173.93 57.7087 172.566 57.626C172.566 57.006 172.608 56.4067 172.69 55.828C172.814 55.208 173.021 54.6293 173.31 54.092C175.501 54.092 177.609 53.8853 179.634 53.472C181.701 53.0173 183.21 52.542 184.16 52.046C184.739 52.2527 185.173 52.6247 185.462 53.162C185.793 53.658 185.958 54.402 185.958 55.394L177.092 68.042ZM205.612 72.01C205.612 74.0767 205.84 75.5027 206.294 76.288C206.79 77.032 207.596 77.404 208.712 77.404C208.919 77.9 209.043 78.458 209.084 79.078C209.167 79.6567 209.208 80.3593 209.208 81.186C208.299 81.1447 207.121 81.1033 205.674 81.062C204.269 81.0207 202.884 81 201.52 81C200.611 81 199.578 81 198.42 81C197.304 81.0413 196.23 81.062 195.196 81.062C194.163 81.1033 193.336 81.1447 192.716 81.186C192.716 80.442 192.737 79.76 192.778 79.14C192.82 78.52 192.944 77.9413 193.15 77.404C194.308 77.404 195.196 76.9907 195.816 76.164C196.436 75.3373 196.746 73.8287 196.746 71.638V64.88C196.746 62.276 196.333 60.478 195.506 59.486C194.68 58.4527 193.502 57.936 191.972 57.936C190.98 57.936 190.009 58.3287 189.058 59.114C188.149 59.858 187.405 60.974 186.826 62.462C186.248 63.9087 185.958 65.7273 185.958 67.918V72.01C185.958 74.118 186.227 75.544 186.764 76.288C187.343 77.032 188.252 77.404 189.492 77.404C189.74 77.9827 189.885 78.5613 189.926 79.14C189.968 79.7187 189.988 80.4007 189.988 81.186C189.41 81.1447 188.624 81.1033 187.632 81.062C186.64 81.062 185.607 81.0413 184.532 81C183.499 81 182.507 81 181.556 81C180.606 81 179.552 81 178.394 81C177.237 81.0413 176.121 81.062 175.046 81.062C173.972 81.1033 173.124 81.1447 172.504 81.186C172.504 80.4007 172.546 79.6773 172.628 79.016C172.711 78.3547 172.835 77.8173 173 77.404C174.612 77.404 175.687 77.032 176.224 76.288C176.803 75.5027 177.092 74.0767 177.092 72.01V62.648L185.958 55.394C185.958 55.89 185.896 56.4687 185.772 57.13C185.69 57.75 185.545 58.4113 185.338 59.114C185.586 58.618 185.834 58.122 186.082 57.626C186.33 57.13 186.661 56.6547 187.074 56.2C187.901 55.2493 189.058 54.3813 190.546 53.596C192.034 52.7693 193.75 52.356 195.692 52.356C197.428 52.356 199.04 52.6867 200.528 53.348C202.058 54.0093 203.277 55.084 204.186 56.572C205.137 58.06 205.612 60.0233 205.612 62.462V72.01Z" fill="white"/>
<g clip-path="url(#clip0_3100_1591)">
<path d="M51.5948 33.3472C49.1717 32.3976 46.5647 35.8387 45.7766 41.0332C45.6891 41.6126 45.628 42.1822 45.5898 42.7543C45.0815 42.503 44.5514 42.2695 44.0059 42.0555C39.1133 40.1408 34.8337 40.6756 34.4405 43.2512C34.0513 45.8245 37.6965 49.4644 42.5868 51.3752C45.5532 52.5348 48.2932 52.7936 50.0801 52.2433C50.3474 52.1789 50.6141 52.0672 50.8762 51.9106C51.1429 51.7619 51.3729 51.5868 51.5623 51.3875C52.9323 50.1152 54.0759 47.6088 54.5572 44.4641C55.3413 39.2719 54.0156 34.2928 51.5948 33.3472Z" fill="#CADE31"/>
</g>
<defs>
<clipPath id="clip0_3100_1591">
<rect width="23.0307" height="23.0307" fill="white" transform="translate(31 40.5156) rotate(-30)"/>
</clipPath>
</defs>
</svg>
