<svg width="80" height="80" viewBox="0 0 80 80" fill="none" xmlns="http://www.w3.org/2000/svg">
<circle opacity="0.3" cx="40" cy="40" r="40" fill="white"/>
<path fill-rule="evenodd" clip-rule="evenodd" d="M34 25.75C31.5147 25.75 29.5 27.7647 29.5 30.25V49.75C29.5 52.2353 31.5147 54.25 34 54.25C36.4853 54.25 38.5 52.2353 38.5 49.75V30.25C38.5 27.7647 36.4853 25.75 34 25.75ZM46 25.75C43.5147 25.75 41.5 27.7647 41.5 30.25V49.75C41.5 52.2353 43.5147 54.25 46 54.25C48.4853 54.25 50.5 52.2353 50.5 49.75V30.25C50.5 27.7647 48.4853 25.75 46 25.75Z" fill="white"/>
</svg>
