<svg width="24" height="24" viewBox="0 0 24 24" fill="none" xmlns="http://www.w3.org/2000/svg">
<g clip-path="url(#clip0_2947_512)">
<circle cx="12" cy="12" r="12" fill="#474E52"/>
<path d="M14.4101 8.82074C15.8045 9.83602 16.5017 10.3437 16.777 10.9572C17.0743 11.62 17.0743 12.38 16.777 13.0428C16.5017 13.6563 15.8045 14.164 14.4102 15.1793C12.5296 16.5485 11.5894 17.2331 10.8082 17.2495C9.96658 17.267 9.17244 16.8572 8.69405 16.1584C8.25 15.5097 8.25 14.3398 8.25 12C8.25 9.66022 8.25 8.49033 8.69405 7.84165C9.17244 7.14282 9.96658 6.73296 10.8082 6.75054C11.5894 6.76686 12.5296 7.45149 14.4101 8.82074Z" fill="#F0F3F5"/>
</g>
<defs>
<clipPath id="clip0_2947_512">
<rect width="24" height="24" fill="white"/>
</clipPath>
</defs>
</svg>
