<svg width="35" height="35" viewBox="0 0 35 35" fill="none" xmlns="http://www.w3.org/2000/svg">
<path d="M35 12.5684L30.5504 4.93156C29.1682 5.72061 23.3933 9.99463 19.8431 13.4702C21.1022 8.67955 21.9448 1.5781 21.9448 0H13.0552C13.0552 1.5781 13.8978 8.68894 15.1569 13.4702C11.6067 9.99463 5.82229 5.72061 4.44955 4.93156L0 12.5684C1.3822 13.3575 7.99973 16.1943 12.809 17.5C7.99973 18.8151 1.3822 21.6425 0 22.4316L4.44955 30.0684C5.83176 29.2794 11.6067 25.0054 15.1569 21.5298C13.8978 26.3205 13.0552 33.4219 13.0552 35H21.9448C21.9448 33.4219 21.1022 26.3111 19.8431 21.5298C23.3933 25.0054 29.1777 29.2794 30.5504 30.0684L35 22.4316C33.6178 21.6425 27.0003 18.8057 22.191 17.5C27.0003 16.1849 33.6178 13.3575 35 12.5684Z" fill="white"/>
</svg>
