<svg width="27" height="28" viewBox="0 0 27 28" fill="none" xmlns="http://www.w3.org/2000/svg">
<path d="M13.0641 0.813149C13.6331 0.78361 14.2077 0.805087 14.7742 0.858109C16.0971 0.981927 16.3012 1.30309 16.5436 2.49587L16.7518 3.5297C16.7913 3.74689 16.8152 3.9714 16.8659 4.18558L17.9522 4.60799C18.2814 4.74717 18.1903 4.7351 18.5036 4.53372L20.0803 3.45858C20.561 3.1679 20.8958 3.16264 21.3793 3.48864C22.2265 4.05983 22.9476 4.75687 23.5992 5.54244C24.3971 6.50438 24.5223 6.81911 23.7894 7.93245L22.8238 9.33342C23.0377 9.7471 23.1929 10.178 23.3277 10.6234C23.4781 10.6788 23.6669 10.6843 23.8258 10.7124L25.2529 10.9839C25.408 11.0177 25.5824 11.0387 25.7301 11.0974C26.8771 11.5538 26.689 13.1608 26.6884 14.157L26.6709 14.9006C26.642 15.3831 26.5832 15.8755 26.3097 16.2876L26.2978 16.3062C26.0418 16.6957 25.6142 16.8157 25.1849 16.8936L23.383 17.2363C23.3359 17.3744 23.2701 17.5103 23.2142 17.6456L22.9453 18.3137C22.9238 18.3672 22.8518 18.496 22.8517 18.5497C22.8514 18.6893 24.0432 20.2623 24.2102 20.7429C24.4982 21.5717 23.4546 22.5389 22.9409 23.0537C22.5254 23.4701 21.2392 24.7508 20.5872 24.6126L20.5708 24.6088C19.9579 24.4824 18.3403 23.1737 18.1955 23.1994C18.0487 23.2254 16.8603 23.6605 16.8484 23.7392L16.5921 25.0999C16.2051 27.0018 15.9728 26.878 14.092 27.0405C13.5932 27.0586 13.0954 27.051 12.5981 27.0119C10.7953 26.87 10.8067 26.4006 10.478 24.7046L10.2798 23.7117C10.1508 23.6304 9.97869 23.5886 9.8357 23.5339L8.9818 23.1814C8.34169 23.5043 6.89089 24.8215 6.24507 24.5969L5.97919 24.4926C5.21793 24.1233 3.20825 22.2136 2.94633 21.407C2.76686 20.8542 3.0768 20.4234 3.37072 19.9842L3.90992 19.1876C4.05785 18.9718 4.21099 18.7594 4.33417 18.5278L3.81907 17.3211C3.75243 17.1857 3.45973 17.1751 3.33066 17.1476L2.25786 16.9471C1.90376 16.8822 1.56824 16.853 1.25577 16.655C0.322399 16.0635 0.456843 14.7317 0.457008 13.7497C0.507814 12.2957 0.548259 11.2707 2.19287 10.9244L3.78844 10.615C3.83652 10.527 3.86083 10.4278 3.8919 10.3327L4.23022 9.46374C4.32252 9.24621 4.24303 9.22386 4.11506 9.03013L3.31998 7.85464C3.14731 7.5863 2.91747 7.25858 2.88588 6.93197L2.87574 6.81698C2.82791 5.71724 4.56121 4.43438 5.29051 3.85359C6.35685 3.00444 6.58016 3.13225 7.59918 3.8197L8.71084 4.56547C8.93415 4.70912 8.888 4.74005 9.13784 4.64498L9.87306 4.33897C10.0061 4.2838 10.1385 4.22083 10.2799 4.19067L10.2991 4.18675C10.3622 3.56974 10.5018 2.97281 10.6496 2.37239C10.9252 1.25283 11.1207 0.976342 12.4155 0.865657L13.0641 0.813149ZM13.4702 11.1289C12.7311 11.1733 11.9924 11.4725 11.4956 12.0362C9.83343 13.9221 11.1361 16.7665 13.704 16.742C17.2479 16.4861 17.1938 11.5259 13.9102 11.1399L13.4702 11.1289Z" fill="#B7C9D8"/>
</svg>
