<svg width="100" height="100" viewBox="0 0 100 100" fill="none" xmlns="http://www.w3.org/2000/svg">
<g clip-path="url(#clip0_4803_708)">
<g clip-path="url(#clip1_4803_708)">
<path d="M71.5376 15.0985C63.1206 11.8 54.0649 23.7532 51.3273 41.7968C51.0236 43.8096 50.8113 45.7879 50.6786 47.7755C48.9128 46.9024 47.0715 46.0913 45.1765 45.348C28.1815 38.697 13.3158 40.5548 11.95 49.5014C10.5981 58.44 23.2602 71.0837 40.2473 77.7209C50.5513 81.749 60.0692 82.6479 66.276 80.7364C67.2045 80.5127 68.1309 80.1249 69.0414 79.5808C69.9678 79.0643 70.7669 78.456 71.4249 77.7637C76.1837 73.3442 80.1562 64.6382 81.8278 53.7144C84.5514 35.6788 79.9466 18.3832 71.5376 15.0985Z" fill="#CADE31"/>
</g>
</g>
<defs>
<clipPath id="clip0_4803_708">
<rect width="100" height="100" fill="white"/>
</clipPath>
<clipPath id="clip1_4803_708">
<rect width="80" height="80" fill="white" transform="translate(0 40) rotate(-30)"/>
</clipPath>
</defs>
</svg>
